<?xml version="1.0" encoding="utf-8"?>
<!-- Svg Vector Icons : http://www.onlinewebfonts.com/icon -->
<!DOCTYPE svg PUBLIC "-//W3C//DTD SVG 1.1//EN" "http://www.w3.org/Graphics/SVG/1.1/DTD/svg11.dtd">
<svg version="1.1" xmlns="http://www.w3.org/2000/svg" xmlns:xlink="http://www.w3.org/1999/xlink" x="0px" y="0px" viewBox="0 0 1000 1000" enable-background="new 0 0 1000 1000" xml:space="preserve">
<metadata> Svg Vector Icons : http://www.onlinewebfonts.com/icon </metadata>
<g><g transform="translate(0.000000,511.000000) scale(0.100000,-0.100000)"><path d="M4270.3,4998.7c-31.3-4.5-131.9-20.1-223.6-33.5c-936.8-131.9-1893.8-668.5-2519.8-1413.1C254.6,2036.1,212.1-117,1424-1668.7c742.3-950.2,1855.8-1522.6,3072.1-1585.2c268.3-13.4,286.2-11.2,402.5,42.5c149.8,69.3,234.8,152,301.8,297.4c96.1,203.5,53.7,449.4-102.9,612.6c-134.2,136.4-199,161-500.8,185.6c-827.3,60.3-1428.7,313-1965.3,820.5c-270.5,257.1-460.6,518.7-632.7,863.1C1790.7-9.7,1719.1,276.5,1705.7,768.4c-13.4,424.8,20.1,695.3,129.7,1028.5c152,467.3,366.7,813.9,733.4,1182.8c440.5,444.9,892.1,693.1,1502.5,829.5c306.3,67.1,889.9,71.5,1180.5,8.9c599.2-129.7,1073.2-377.9,1498.1-784.8c563.4-541.1,867.5-1209.6,918.9-2016.8c15.7-261.6,24.6-306.3,80.5-409.2c105.1-194.5,279.5-295.1,503.1-292.9c230.3,0,427.1,127.5,518.7,337.6c38,82.7,44.7,143.1,40.2,357.7C8791.2,2326.8,8069,3610.2,6931,4348c-690.9,447.2-1457.8,668.5-2287.3,661.8C4469.2,5007.6,4301.6,5003.2,4270.3,4998.7z"/><path d="M5600.6,676.7c-64.8-26.8-120.7-98.4-143.1-176.6c-24.6-85,205.7-4619.3,239.2-4702.1c33.5-80.5,131.9-154.3,210.2-154.3c123,0,187.8,60.4,456.1,429.3c145.3,201.2,297.4,409.2,335.4,460.6l73.8,98.4l295.1-590.3c161-322,317.5-621.6,348.8-661.8c78.3-102.9,216.9-169.9,360-169.9c102.9,0,158.8,20.1,469.5,176.7c411.4,210.2,469.5,268.3,489.7,494.1l11.2,131.9l-315.3,632.8C8256.8-3008,8116-2717.3,8116-2712.9c0,6.7,261.6,11.2,581.3,11.2c402.5-2.3,594.7,4.5,630.5,24.6c120.7,60.4,161,192.3,102.8,322C9410.5-2308.2,6164.1,424.1,5889,627.5C5813,683.4,5669.9,708,5600.6,676.7z"/></g></g>
</svg>